<svg width="281" height="65" viewBox="0 0 281 65" fill="none" xmlns="http://www.w3.org/2000/svg">
<g clip-path="url(#clip0_209_141)">
<path fill-rule="evenodd" clip-rule="evenodd" d="M38.3166 20.2939C39.0798 18.6475 39.1972 16.6482 38.7275 14.355C40.3127 16.2954 40.3127 18.6475 38.3166 20.2939ZM37.4946 22.1168V29.7022L35.3224 29.3493V21.9992C30.5082 21.2347 31.7998 16.1778 32.974 13.0025C34.5592 9.53325 37.9643 9.82725 39.4907 13.4141C41.1346 16.5306 41.5456 20.7643 37.4946 22.1168Z" fill="#05581C"/>
<path fill-rule="evenodd" clip-rule="evenodd" d="M18.9083 29.7023C19.0198 24.6196 19.0756 22.049 19.0756 22.049C17.403 21.348 16.4552 20.2964 16.5109 18.719C16.6224 13.9868 16.6782 11.6499 16.6782 11.6499C17.1242 11.6499 17.403 11.6499 17.403 11.6499C17.4587 16.09 17.5145 18.31 17.5145 18.31C17.5702 20.1795 18.5738 20.8222 18.5738 18.7774C18.7411 14.162 18.8526 11.6499 18.8526 11.6499C19.3544 11.6499 19.5774 11.6499 19.5774 11.6499C19.5216 16.6158 19.5216 19.1279 19.5216 19.1279C19.5774 20.6469 20.581 20.6469 20.6367 19.1279C20.6367 19.1279 20.6367 16.6158 20.581 11.6499C20.581 11.6499 20.804 11.6499 21.3058 11.6499C21.3058 11.6499 21.4173 14.162 21.5845 18.7774C21.5845 20.8222 22.5881 20.1795 22.6438 18.31C22.6438 18.31 22.6996 16.09 22.7554 11.6499C22.7554 11.6499 22.9784 11.6499 23.4802 11.6499C23.4802 11.6499 23.5359 13.9868 23.6474 18.719C23.6474 20.2964 22.7554 21.348 21.0827 22.049L21.25 29.3518L18.9083 29.7023Z" fill="#05581C"/>
<path fill-rule="evenodd" clip-rule="evenodd" d="M29.1585 4.07014C29.587 5.83917 29.7477 6.72369 29.7477 6.72369C31.408 5.72124 30.9796 2.41905 29.1585 0.708984C27.2839 2.41905 26.8554 5.72124 28.5693 6.72369C28.5158 6.78266 28.73 5.89814 29.1585 4.07014Z" fill="#3F8A28"/>
<path fill-rule="evenodd" clip-rule="evenodd" d="M45.1484 11.3816C44.3147 12.9646 43.9256 13.7854 43.9256 13.7854C45.8711 14.2544 47.5942 11.4988 47.2051 8.9191C44.7038 8.80184 42.3136 10.9711 42.9806 12.9059C43.0362 12.9646 43.7588 12.4369 45.1484 11.3816Z" fill="#3F8A28"/>
<path fill-rule="evenodd" clip-rule="evenodd" d="M12.2949 9.19357C13.2329 10.8352 13.6706 11.5974 13.6706 11.5974C11.482 12.0664 9.54343 9.31083 9.98116 6.73112C12.7952 6.61386 15.4841 8.78316 14.7337 10.7179C14.6712 10.7179 13.8582 10.1903 12.2949 9.19357Z" fill="#3F8A28"/>
<path fill-rule="evenodd" clip-rule="evenodd" d="M43.6205 24.4058C42.5473 26.0149 42.039 26.7874 42.039 26.7874C43.9029 27.6885 46.1057 25.0494 46.1622 22.1529C43.6769 21.5736 40.9093 23.3759 41.2482 25.6287C41.1917 25.6287 41.9825 25.2425 43.6205 24.4058Z" fill="#3F8A28"/>
<path fill-rule="evenodd" clip-rule="evenodd" d="M10.1519 23.541C11.8825 24.7265 12.6813 25.3193 12.6813 25.3193C10.8841 26.8341 7.62251 25.0558 6.62407 22.2238C9.22 20.7749 12.8809 21.5652 13.2137 23.9362C13.2137 23.9362 12.2153 23.8045 10.1519 23.541Z" fill="#3F8A28"/>
<path fill-rule="evenodd" clip-rule="evenodd" d="M28.5897 29.7021L7.18824 33.2128L0.0343933 46.6605L21.4358 43.1498L28.5897 29.7021Z" fill="#3F8A28"/>
<path fill-rule="evenodd" clip-rule="evenodd" d="M28.5897 29.7021L49.9911 33.2128L57.145 46.6605L35.7435 43.1498L28.5897 29.7021Z" fill="#3F8A28"/>
<path fill-rule="evenodd" clip-rule="evenodd" d="M8.04311 46.1792V57.2888L27.4958 61.5798L27.8506 31.719L28.5601 30.2495L29.2696 31.719L29.6244 61.5798L49.1362 57.2888V46.1792H50.1414L50.5553 58.4644L28.5601 64.1661L6.62407 58.4644L7.03796 46.1792H8.04311Z" fill="#05581C"/>
<path fill-rule="evenodd" clip-rule="evenodd" d="M14.312 58.209L26.5152 60.3364L26.9423 44.4722C25.966 53.0425 21.7559 57.5404 14.312 58.209Z" fill="#3F8A28"/>
<path fill-rule="evenodd" clip-rule="evenodd" d="M43.4165 58.0377L30.6049 60.3367L30.2371 46.6606C30.8501 54.5008 35.6927 58.3914 43.4165 58.0377Z" fill="#3F8A28"/>
</g>
<g clip-path="url(#clip1_209_141)">
<path d="M202.402 30.5952C202.927 30.1395 203.527 29.7597 204.127 29.5318C204.727 29.304 205.476 29.228 206.151 29.228C206.676 29.228 207.126 29.304 207.576 29.4559C208.026 29.6078 208.326 29.8357 208.626 30.1395C208.926 30.4433 209.151 30.8231 209.301 31.2029C209.451 31.6586 209.526 32.1144 209.526 32.5701V38.039H208.326C208.101 38.039 207.876 38.039 207.801 37.963C207.651 37.8871 207.576 37.7352 207.501 37.5073L207.351 37.0516C207.126 37.2035 206.901 37.4313 206.751 37.5073C206.526 37.6592 206.376 37.7352 206.151 37.8871C205.926 37.963 205.701 38.039 205.476 38.115C205.251 38.1909 204.951 38.1909 204.652 38.1909C204.277 38.1909 203.902 38.115 203.602 38.039C203.302 37.963 203.002 37.8111 202.777 37.5833C202.552 37.3554 202.402 37.1275 202.252 36.8237C202.102 36.5199 202.102 36.1401 202.102 35.7603C202.102 35.4565 202.177 35.1526 202.327 34.7729C202.477 34.469 202.777 34.1652 203.152 33.8614C203.527 33.5575 204.052 33.4056 204.727 33.1778C205.401 33.0259 206.226 32.8739 207.201 32.8739V32.6461C207.201 32.1144 207.126 31.7346 206.901 31.5067C206.676 31.2788 206.376 31.2029 206.001 31.2029C205.701 31.2029 205.476 31.2029 205.251 31.2788C205.026 31.3548 204.876 31.4308 204.727 31.5067C204.577 31.5827 204.427 31.6586 204.277 31.7346C204.127 31.8105 203.977 31.8105 203.752 31.8105C203.602 31.8105 203.452 31.7346 203.302 31.6586C203.152 31.5827 203.077 31.4308 203.002 31.3548L202.402 30.5952ZM207.051 34.545C206.526 34.545 206.076 34.6209 205.776 34.6969C205.476 34.7729 205.176 34.8488 204.951 34.9248C204.727 35.0007 204.652 35.1526 204.577 35.3046C204.502 35.4565 204.427 35.6084 204.427 35.7603C204.427 36.0641 204.502 36.292 204.652 36.3679C204.802 36.5199 205.026 36.5199 205.326 36.5199C205.626 36.5199 205.926 36.4439 206.226 36.3679C206.451 36.216 206.751 36.0641 206.976 35.7603V34.545H207.051ZM198.952 31.4308C198.877 31.5067 198.802 31.5827 198.727 31.6586C198.652 31.7346 198.577 31.7346 198.427 31.7346C198.277 31.7346 198.202 31.7346 198.052 31.6586C197.977 31.5827 197.827 31.5067 197.677 31.4308C197.527 31.3548 197.377 31.2788 197.227 31.2029C197.077 31.1269 196.852 31.1269 196.552 31.1269C196.252 31.1269 195.952 31.2029 195.727 31.2788C195.502 31.4308 195.277 31.5827 195.127 31.8105C194.977 32.0384 194.902 32.2663 194.827 32.6461C194.752 32.9499 194.752 33.3297 194.752 33.7095C194.752 34.545 194.902 35.2286 195.202 35.6084C195.502 36.0641 195.952 36.292 196.552 36.292C196.852 36.292 197.077 36.216 197.302 36.1401C197.452 36.0641 197.602 35.9882 197.752 35.9122C197.902 35.8362 197.977 35.7603 198.127 35.6843C198.202 35.6084 198.352 35.5324 198.502 35.5324C198.727 35.5324 198.877 35.6084 198.952 35.7603L199.702 36.6718C199.402 36.9756 199.177 37.2035 198.877 37.4313C198.577 37.6592 198.277 37.8111 197.977 37.8871C197.677 37.963 197.377 38.039 197.077 38.115C196.777 38.1909 196.477 38.1909 196.177 38.1909C195.652 38.1909 195.127 38.115 194.677 37.8871C194.227 37.6592 193.777 37.3554 193.402 36.9756C193.027 36.5958 192.727 36.1401 192.502 35.5324C192.277 35.0007 192.202 34.3171 192.202 33.6335C192.202 33.0259 192.277 32.4182 192.502 31.8865C192.652 31.3548 192.952 30.8991 193.327 30.4433C193.702 30.0635 194.152 29.7597 194.677 29.5318C195.202 29.304 195.802 29.1521 196.552 29.1521C197.227 29.1521 197.827 29.228 198.352 29.4559C198.877 29.6838 199.327 29.9876 199.702 30.4433L198.952 31.4308ZM189.128 26.9493C189.128 27.1772 189.053 27.3291 188.978 27.557C188.903 27.7089 188.753 27.9367 188.603 28.0127C188.453 28.1646 188.303 28.2406 188.078 28.3165C187.928 28.4684 187.703 28.4684 187.553 28.4684C187.328 28.4684 187.178 28.3925 186.953 28.3165C186.803 28.2406 186.578 28.0887 186.503 28.0127C186.353 27.8608 186.278 27.7089 186.203 27.557C186.128 27.4051 186.053 27.1772 186.053 26.9493C186.053 26.7214 186.128 26.5695 186.203 26.3417C186.278 26.1897 186.428 25.9619 186.503 25.8859C186.653 25.734 186.803 25.658 186.953 25.5821C187.103 25.5061 187.328 25.4302 187.553 25.4302C187.778 25.4302 188.003 25.5061 188.153 25.5821C188.378 25.658 188.528 25.734 188.678 25.8859C188.828 26.0378 188.903 26.1897 189.053 26.3417C189.053 26.5695 189.128 26.7214 189.128 26.9493ZM188.828 29.3799V38.115H186.278V29.3799H188.828ZM180.353 30.7471C180.653 30.2914 180.953 29.9116 181.253 29.6078C181.628 29.304 182.003 29.228 182.453 29.228C182.828 29.228 183.128 29.304 183.428 29.5318L183.278 31.4308C183.278 31.5827 183.203 31.6586 183.128 31.6586C183.053 31.7346 182.978 31.7346 182.828 31.7346C182.753 31.7346 182.753 31.7346 182.678 31.7346C182.603 31.7346 182.528 31.7346 182.453 31.7346C182.378 31.7346 182.303 31.7346 182.228 31.7346C182.153 31.7346 182.078 31.7346 182.003 31.7346C181.628 31.7346 181.328 31.8105 181.103 32.0384C180.878 32.2663 180.653 32.4942 180.503 32.8739V38.1909H177.953V29.3799H179.453C179.603 29.3799 179.678 29.3799 179.753 29.3799C179.828 29.3799 179.903 29.4559 179.978 29.4559C180.053 29.5318 180.053 29.5318 180.128 29.6838C180.128 29.7597 180.203 29.8357 180.203 29.9876L180.353 30.7471ZM169.104 34.2412C169.179 35.0007 169.404 35.5324 169.779 35.8362C170.154 36.1401 170.604 36.3679 171.129 36.3679C171.429 36.3679 171.654 36.3679 171.879 36.292C172.104 36.216 172.254 36.1401 172.479 36.0641C172.629 35.9882 172.779 35.9122 172.929 35.8362C173.079 35.7603 173.229 35.7603 173.379 35.7603C173.604 35.7603 173.754 35.8362 173.829 35.9882L174.579 36.8996C174.279 37.2035 174.054 37.4313 173.754 37.6592C173.454 37.8871 173.154 38.039 172.779 38.115C172.479 38.1909 172.104 38.2669 171.804 38.3428C171.504 38.4188 171.204 38.4188 170.904 38.4188C170.304 38.4188 169.704 38.3428 169.179 38.115C168.654 37.8871 168.204 37.5833 167.754 37.2035C167.379 36.8237 167.079 36.292 166.779 35.7603C166.554 35.1526 166.404 34.469 166.404 33.7095C166.404 33.1018 166.479 32.5701 166.704 32.0384C166.929 31.5067 167.154 31.051 167.529 30.6712C167.904 30.2914 168.354 29.9876 168.879 29.7597C169.404 29.5318 170.004 29.3799 170.679 29.3799C171.279 29.3799 171.804 29.4559 172.254 29.6838C172.704 29.8357 173.154 30.1395 173.454 30.4433C173.829 30.8231 174.054 31.2029 174.279 31.7346C174.504 32.2663 174.579 32.798 174.579 33.4056C174.579 33.6335 174.579 33.7854 174.579 33.8614C174.579 34.0133 174.504 34.0892 174.504 34.1652C174.429 34.2412 174.429 34.3171 174.354 34.3171C174.279 34.3171 174.204 34.3931 174.054 34.3931H169.104V34.2412ZM172.404 32.722C172.404 32.4942 172.404 32.3422 172.329 32.1144C172.254 31.8865 172.179 31.7346 172.104 31.5827C171.954 31.4308 171.804 31.2788 171.654 31.2029C171.429 31.1269 171.204 31.051 170.979 31.051C170.454 31.051 170.079 31.2029 169.854 31.5067C169.554 31.8105 169.404 32.1903 169.329 32.722H172.404ZM150.88 38.115V29.3799H152.455C152.755 29.3799 152.98 29.5318 153.055 29.8357L153.205 30.2914C153.355 30.1395 153.505 29.9876 153.655 29.8357C153.805 29.6838 153.955 29.6078 154.18 29.5318C154.33 29.4559 154.555 29.3799 154.78 29.304C155.005 29.228 155.23 29.228 155.455 29.228C155.98 29.228 156.43 29.3799 156.73 29.6078C157.105 29.9116 157.33 30.2155 157.48 30.6712C157.63 30.3674 157.78 30.1395 158.005 29.9876C158.23 29.7597 158.455 29.6078 158.68 29.5318C158.905 29.3799 159.205 29.304 159.43 29.304C159.805 29.228 160.105 29.228 160.33 29.228C160.855 29.228 161.23 29.304 161.68 29.4559C162.055 29.6078 162.355 29.8357 162.655 30.1395C162.88 30.4433 163.105 30.7471 163.255 31.2029C163.405 31.5827 163.48 32.1144 163.48 32.6461V38.1909H160.93V32.5701C160.93 31.6586 160.555 31.2029 159.805 31.2029C159.43 31.2029 159.13 31.3548 158.905 31.5827C158.68 31.8105 158.53 32.1903 158.53 32.5701V38.115H155.98V32.5701C155.98 32.0384 155.905 31.7346 155.68 31.5067C155.455 31.2788 155.23 31.2029 154.855 31.2029C154.63 31.2029 154.405 31.2788 154.18 31.3548C153.955 31.4308 153.805 31.5827 153.58 31.8105V38.115H150.88ZM148.331 38.115H146.156C145.931 38.115 145.706 38.039 145.556 37.963C145.406 37.8111 145.256 37.7352 145.181 37.5073L144.431 35.3805H139.781L139.031 37.5073C138.956 37.6592 138.881 37.8111 138.731 37.963C138.581 38.115 138.356 38.1909 138.131 38.1909H135.957L140.681 25.8859H143.531L148.331 38.115ZM143.831 33.4056L142.706 30.0635C142.631 29.8357 142.556 29.6078 142.406 29.304C142.331 29.0001 142.181 28.6963 142.106 28.3925C142.031 28.7723 141.956 29.0761 141.806 29.3799C141.731 29.6838 141.656 29.9116 141.506 30.1395L140.381 33.4816H143.831V33.4056ZM128.007 31.2788C127.932 31.3548 127.857 31.4308 127.782 31.5067C127.707 31.5827 127.632 31.5827 127.482 31.5827C127.332 31.5827 127.257 31.5827 127.107 31.5067C126.957 31.4308 126.882 31.4308 126.732 31.3548C126.582 31.2788 126.432 31.2029 126.282 31.2029C126.132 31.1269 125.907 31.1269 125.682 31.1269C125.382 31.1269 125.082 31.2029 124.932 31.2788C124.782 31.4308 124.632 31.5827 124.632 31.8105C124.632 31.9625 124.707 32.1144 124.782 32.1903C124.932 32.2663 125.082 32.4182 125.307 32.4942C125.532 32.5701 125.682 32.6461 125.982 32.722C126.207 32.798 126.432 32.8739 126.732 32.9499C126.957 33.0258 127.257 33.1778 127.482 33.2537C127.707 33.4056 127.932 33.5575 128.157 33.7095C128.382 33.8614 128.532 34.0892 128.607 34.3931C128.757 34.6209 128.757 34.9248 128.757 35.3046C128.757 35.7603 128.682 36.1401 128.532 36.5199C128.382 36.8996 128.157 37.2035 127.857 37.4313C127.557 37.6592 127.182 37.8871 126.732 38.039C126.282 38.1909 125.757 38.2669 125.157 38.2669C124.857 38.2669 124.557 38.2669 124.257 38.1909C123.957 38.115 123.658 38.039 123.433 37.963C123.133 37.8871 122.908 37.7352 122.683 37.5833C122.458 37.4313 122.233 37.2794 122.083 37.1275L122.683 36.1401C122.758 36.0641 122.833 35.9122 122.908 35.8362C122.983 35.7603 123.133 35.7603 123.283 35.7603C123.433 35.7603 123.583 35.7603 123.658 35.8362C123.807 35.9122 123.882 35.9882 124.032 36.0641C124.182 36.1401 124.332 36.216 124.557 36.292C124.707 36.3679 125.007 36.3679 125.232 36.3679C125.457 36.3679 125.607 36.3679 125.757 36.292C125.907 36.216 125.982 36.216 126.057 36.1401C126.132 36.0641 126.207 35.9882 126.207 35.9122C126.282 35.8362 126.282 35.7603 126.282 35.6084C126.282 35.4565 126.207 35.3046 126.132 35.1526C125.982 35.0767 125.832 34.9248 125.682 34.8488C125.457 34.7729 125.307 34.6969 125.007 34.6209C124.782 34.545 124.482 34.469 124.257 34.3931C124.032 34.3171 123.732 34.1652 123.508 34.0892C123.283 33.9373 123.058 33.7854 122.833 33.6335C122.608 33.4056 122.458 33.1778 122.383 32.9499C122.233 32.6461 122.233 32.3422 122.233 31.9625C122.233 31.5827 122.308 31.2029 122.458 30.8991C122.608 30.5952 122.833 30.2914 123.058 29.9876C123.358 29.7597 123.732 29.5318 124.107 29.3799C124.557 29.304 125.082 29.228 125.607 29.228C125.907 29.228 126.207 29.228 126.507 29.304C126.807 29.3799 127.107 29.4559 127.332 29.5318C127.557 29.6078 127.857 29.7597 128.007 29.9116C128.232 30.0635 128.382 30.2155 128.532 30.3674L128.007 31.2788ZM118.858 25.5061V38.115H116.308V25.5061H118.858ZM105.509 30.5952C106.034 30.1395 106.634 29.7597 107.234 29.5318C107.909 29.304 108.584 29.228 109.334 29.228C109.859 29.228 110.308 29.304 110.758 29.4559C111.208 29.6078 111.508 29.8357 111.808 30.1395C112.108 30.4433 112.333 30.8231 112.483 31.2029C112.633 31.6586 112.708 32.1144 112.708 32.5701V38.039H111.508C111.283 38.039 111.058 38.039 110.983 37.963C110.833 37.8871 110.758 37.7352 110.683 37.5073L110.533 37.0516C110.308 37.2035 110.084 37.4313 109.934 37.5073C109.709 37.6592 109.559 37.7352 109.334 37.8871C109.109 37.963 108.884 38.039 108.659 38.115C108.434 38.1909 108.134 38.1909 107.834 38.1909C107.459 38.1909 107.084 38.115 106.784 38.039C106.484 37.963 106.184 37.8111 105.959 37.5833C105.734 37.3554 105.584 37.1275 105.434 36.8237C105.284 36.5199 105.284 36.1401 105.284 35.7603C105.284 35.4565 105.359 35.1526 105.509 34.7729C105.659 34.469 105.959 34.1652 106.334 33.8614C106.709 33.5575 107.234 33.4056 107.909 33.1778C108.584 33.0259 109.409 32.8739 110.383 32.8739V32.6461C110.383 32.1144 110.308 31.7346 110.084 31.5067C109.859 31.2788 109.559 31.2029 109.184 31.2029C108.884 31.2029 108.659 31.2029 108.434 31.2788C108.059 31.3548 107.834 31.4308 107.684 31.5067C107.534 31.5827 107.384 31.6586 107.234 31.7346C107.084 31.8105 106.934 31.8105 106.709 31.8105C106.559 31.8105 106.409 31.7346 106.259 31.6586C106.109 31.5827 106.034 31.4308 105.959 31.3548L105.509 30.5952ZM110.159 34.545C109.634 34.545 109.184 34.6209 108.884 34.6969C108.584 34.7729 108.284 34.8488 108.059 34.9248C107.834 35.0007 107.759 35.1526 107.684 35.3046C107.609 35.4565 107.534 35.6084 107.534 35.7603C107.534 36.0641 107.609 36.292 107.759 36.3679C107.909 36.5199 108.134 36.5199 108.434 36.5199C108.734 36.5199 109.034 36.4439 109.334 36.3679C109.559 36.216 109.859 36.0641 110.084 35.7603V34.545H110.159ZM96.9595 34.2412C97.0345 35.0007 97.2595 35.5324 97.6344 35.8362C98.0094 36.1401 98.4594 36.3679 98.9843 36.3679C99.2843 36.3679 99.5093 36.3679 99.7343 36.292C99.9593 36.216 100.109 36.1401 100.334 36.0641C100.484 35.9882 100.634 35.9122 100.784 35.8362C100.934 35.7603 101.084 35.7603 101.234 35.7603C101.459 35.7603 101.609 35.8362 101.684 35.9882L102.434 36.8996C102.134 37.2035 101.909 37.4313 101.609 37.6592C101.309 37.8871 101.009 38.039 100.634 38.115C100.334 38.1909 99.9593 38.2669 99.6593 38.3428C99.3593 38.4188 99.0593 38.4188 98.7593 38.4188C98.1594 38.4188 97.5594 38.3428 97.0345 38.115C96.5095 37.8871 96.0595 37.5833 95.6096 37.2035C95.2346 36.8237 94.9346 36.292 94.6346 35.7603C94.4097 35.1526 94.2597 34.469 94.2597 33.7095C94.2597 33.1018 94.3347 32.5701 94.5597 32.0384C94.7846 31.5067 95.0096 31.051 95.3846 30.6712C95.7596 30.2914 96.2095 29.9876 96.7345 29.7597C97.4094 29.3799 97.9344 29.228 98.6094 29.228C99.2093 29.228 99.7343 29.304 100.184 29.5318C100.634 29.6838 101.084 29.9876 101.384 30.2914C101.759 30.6712 101.984 31.051 102.209 31.5827C102.434 32.1144 102.509 32.6461 102.509 33.2537C102.509 33.4816 102.509 33.6335 102.509 33.7095C102.509 33.8614 102.434 33.9373 102.434 34.0133C102.359 34.0892 102.359 34.1652 102.284 34.1652C102.209 34.1652 102.134 34.2412 101.984 34.2412H96.9595ZM100.184 32.722C100.184 32.4942 100.184 32.3422 100.109 32.1144C100.034 31.8865 99.9593 31.7346 99.8843 31.5827C99.7343 31.4308 99.5843 31.2788 99.4343 31.2029C99.2093 31.1269 98.9843 31.051 98.7593 31.051C98.2344 31.051 97.8594 31.2029 97.6344 31.5067C97.3344 31.8105 97.1845 32.1903 97.1095 32.722H100.184ZM91.1099 25.81V38.115H88.6351V31.051C88.6351 30.8991 88.6351 30.7471 88.6351 30.5193C88.6351 30.2914 88.6351 30.1395 88.7101 29.9116L85.4853 36.216C85.4103 36.4439 85.2603 36.5958 85.1104 36.6718C84.8854 36.8237 84.6604 36.8237 84.4354 36.8237H84.0604C83.8354 36.8237 83.6855 36.7477 83.4605 36.6718C83.3105 36.5958 83.1605 36.4439 83.0855 36.216L79.8607 29.9116C79.8607 30.1395 79.8607 30.2914 79.9357 30.5193C79.9357 30.7471 79.9357 30.8991 79.9357 31.051V38.115H77.4609V25.81H79.5608C79.7108 25.81 79.7858 25.81 79.8607 25.81C79.9357 25.81 80.0107 25.81 80.0857 25.8859C80.1607 25.8859 80.2357 25.9619 80.3107 26.0378C80.3857 26.1138 80.4607 26.1897 80.4607 26.2657L83.6105 32.4942C83.6855 32.722 83.8354 32.9499 83.9104 33.1778C83.9854 33.4056 84.1354 33.6335 84.2104 33.8614C84.2854 33.6335 84.4354 33.4056 84.5104 33.1018C84.5854 32.8739 84.7354 32.6461 84.8104 32.4182L87.9601 26.1897C88.0351 26.1138 88.1101 25.9619 88.1101 25.9619C88.1851 25.8859 88.2601 25.8859 88.3351 25.81C88.4101 25.81 88.4851 25.734 88.5601 25.734C88.6351 25.734 88.7851 25.734 88.8601 25.734H91.1099V25.81Z" fill="#05581C"/>
<path d="M83.8258 50.9927H79.2478V53.0507H83.4478V54.9547H79.2478V58.8887H77.2458V49.0887H83.8258V50.9927ZM89.4289 51.0207C89.6109 51.0207 89.7509 51.0347 89.8769 51.0487V53.1067C89.7229 53.0927 89.6109 53.0787 89.3869 53.0787C88.1129 53.0787 87.0209 53.6387 87.0209 55.4587V58.8887H85.0189V51.1887H87.0209V52.5327C87.4969 51.5247 88.3369 51.0207 89.4289 51.0207ZM94.6654 51.0207C97.2134 51.0207 98.7954 53.0227 98.5994 55.5567H92.6914C92.8174 56.7887 93.6574 57.4047 94.6934 57.4047C95.4634 57.4047 96.1354 57.0547 96.4014 56.4387H98.4734C97.8994 58.2587 96.3594 59.0567 94.7074 59.0567C92.2994 59.0567 90.6474 57.3487 90.6474 55.0527C90.6474 52.7427 92.3134 51.0207 94.6654 51.0207ZM94.6514 52.6727C93.6714 52.6727 93.0414 53.2607 92.7894 54.0867H96.4714C96.2474 53.2467 95.6174 52.6727 94.6514 52.6727ZM103.798 51.0207C106.346 51.0207 107.928 53.0227 107.732 55.5567H101.824C101.95 56.7887 102.79 57.4047 103.826 57.4047C104.596 57.4047 105.268 57.0547 105.534 56.4387H107.606C107.032 58.2587 105.492 59.0567 103.84 59.0567C101.432 59.0567 99.7802 57.3487 99.7802 55.0527C99.7802 52.7427 101.446 51.0207 103.798 51.0207ZM103.784 52.6727C102.804 52.6727 102.174 53.2607 101.922 54.0867H105.604C105.38 53.2467 104.75 52.6727 103.784 52.6727ZM120.81 49.0887H123.12V58.8887H121.118V51.8607L118.388 55.9907H118.206L115.49 51.8607V58.8887H113.488V49.0887H115.784L118.304 52.8547L120.81 49.0887ZM128.804 51.0207C131.352 51.0207 132.934 53.0227 132.738 55.5567H126.83C126.956 56.7887 127.796 57.4047 128.832 57.4047C129.602 57.4047 130.274 57.0547 130.54 56.4387H132.612C132.038 58.2587 130.498 59.0567 128.846 59.0567C126.438 59.0567 124.786 57.3487 124.786 55.0527C124.786 52.7427 126.452 51.0207 128.804 51.0207ZM128.79 52.6727C127.81 52.6727 127.18 53.2607 126.928 54.0867H130.61C130.386 53.2467 129.756 52.6727 128.79 52.6727ZM139.855 51.1887H141.857L141.843 58.8887H139.841V57.8527C139.309 58.5807 138.511 59.0567 137.433 59.0567C135.417 59.0567 133.919 57.4047 133.919 55.0387C133.919 52.6587 135.445 51.0207 137.419 51.0207C138.511 51.0207 139.323 51.5247 139.855 52.2667V51.1887ZM137.881 57.1527C139.001 57.1527 139.855 56.3127 139.855 55.0387C139.855 53.7787 139.001 52.9247 137.881 52.9247C136.761 52.9247 135.935 53.7787 135.935 55.0387C135.935 56.3127 136.775 57.1527 137.881 57.1527ZM143.466 58.8887V48.1087H145.468V58.8887H143.466ZM150.618 59.0567C148.56 59.0567 147.062 58.0487 146.782 56.3547H148.812C148.966 56.9707 149.428 57.3907 150.674 57.3907C151.556 57.3907 151.976 57.1807 151.976 56.7607C151.976 56.2427 151.374 56.2007 150.212 55.9207C148.028 55.4027 147.132 54.9127 147.132 53.5827C147.132 51.9587 148.476 51.0207 150.506 51.0207C152.648 51.0207 153.698 52.0567 153.964 53.4847H151.934C151.78 52.9947 151.36 52.7007 150.436 52.7007C149.638 52.7007 149.148 52.9247 149.148 53.3447C149.148 53.7087 149.498 53.7787 150.618 54.0307C152.816 54.5347 154.048 54.9547 154.048 56.4947C154.048 58.2167 152.522 59.0567 150.618 59.0567ZM166.39 50.9927H161.812V53.0507H166.012V54.9547H161.812V58.8887H159.81V49.0887H166.39V50.9927ZM171.269 51.0207C173.495 51.0207 175.287 52.7147 175.287 55.0387C175.287 57.3627 173.523 59.0567 171.269 59.0567C169.029 59.0567 167.265 57.3487 167.265 55.0387C167.265 52.7147 169.057 51.0207 171.269 51.0207ZM171.269 52.9247C170.149 52.9247 169.281 53.7787 169.281 55.0387C169.281 56.3127 170.149 57.1527 171.269 57.1527C172.389 57.1527 173.257 56.3127 173.257 55.0387C173.257 53.7787 172.389 52.9247 171.269 52.9247ZM181.099 51.0207C181.281 51.0207 181.421 51.0347 181.547 51.0487V53.1067C181.393 53.0927 181.281 53.0787 181.057 53.0787C179.783 53.0787 178.691 53.6387 178.691 55.4587V58.8887H176.689V51.1887H178.691V52.5327C179.167 51.5247 180.007 51.0207 181.099 51.0207ZM193.679 50.9927H189.101V52.9667H193.301V54.8707H189.101V56.9847H193.679V58.8887H187.099V49.0887H193.679V50.9927ZM195.023 58.8887V48.1087H197.025V58.8887H195.023ZM199.626 47.6327C200.354 47.6327 200.872 48.1227 200.872 48.8087C200.872 49.4947 200.354 49.9987 199.626 49.9987C198.926 49.9987 198.38 49.4947 198.38 48.8087C198.38 48.1227 198.926 47.6327 199.626 47.6327ZM198.618 58.8887V51.1887H200.62V58.8887H198.618ZM207.982 51.1887H209.984V58.7907C209.984 61.0727 208.5 62.5567 206.176 62.5567C204.314 62.5567 202.564 61.6187 202.27 59.6027H204.342C204.566 60.4707 205.294 60.7787 206.12 60.7787C207.338 60.7787 207.982 60.1487 207.982 58.8467V57.7407C207.436 58.4687 206.638 58.9447 205.56 58.9447C203.544 58.9447 202.046 57.2927 202.046 54.9827C202.046 52.6587 203.572 51.0207 205.56 51.0207C206.624 51.0207 207.45 51.5107 207.982 52.2527V51.1887ZM206.008 57.0407C207.128 57.0407 207.982 56.2007 207.982 54.9827C207.982 53.7787 207.128 52.9247 206.008 52.9247C204.888 52.9247 204.062 53.7787 204.062 54.9827C204.062 56.1867 204.902 57.0407 206.008 57.0407ZM212.587 47.6327C213.315 47.6327 213.833 48.1227 213.833 48.8087C213.833 49.4947 213.315 49.9987 212.587 49.9987C211.887 49.9987 211.341 49.4947 211.341 48.8087C211.341 48.1227 211.887 47.6327 212.587 47.6327ZM211.579 58.8887V51.1887H213.581V58.8887H211.579ZM219.627 51.0207C221.601 51.0207 223.141 52.6587 223.141 55.0387C223.141 57.4047 221.629 59.0567 219.627 59.0567C218.535 59.0567 217.737 58.5807 217.191 57.8527V58.8887H215.189V48.1087H217.191V52.2667C217.723 51.5247 218.549 51.0207 219.627 51.0207ZM219.165 57.1527C220.271 57.1527 221.111 56.3127 221.111 55.0387C221.111 53.7787 220.285 52.9247 219.165 52.9247C218.045 52.9247 217.191 53.7787 217.191 55.0387C217.191 56.3127 218.045 57.1527 219.165 57.1527ZM224.554 58.8887V48.1087H226.556V58.8887H224.554ZM231.986 51.0207C234.534 51.0207 236.116 53.0227 235.92 55.5567H230.012C230.138 56.7887 230.978 57.4047 232.014 57.4047C232.784 57.4047 233.456 57.0547 233.722 56.4387H235.794C235.22 58.2587 233.68 59.0567 232.028 59.0567C229.62 59.0567 227.968 57.3487 227.968 55.0527C227.968 52.7427 229.634 51.0207 231.986 51.0207ZM231.972 52.6727C230.992 52.6727 230.362 53.2607 230.11 54.0867H233.792C233.568 53.2467 232.938 52.6727 231.972 52.6727ZM248.816 58.8887L247.99 56.5787H244.028L243.188 58.8887H241.074L244.742 49.0887H247.276L250.944 58.8887H248.816ZM244.714 54.6747H247.29L246.002 51.1187L244.714 54.6747ZM257.449 48.1087H259.451V58.8887H257.449V57.8527C256.917 58.5807 256.105 59.0567 255.027 59.0567C253.025 59.0567 251.513 57.4047 251.513 55.0387C251.513 52.6587 253.039 51.0207 255.013 51.0207C256.105 51.0207 256.917 51.5247 257.449 52.2667V48.1087ZM255.475 57.1527C256.595 57.1527 257.449 56.3127 257.449 55.0387C257.449 53.7787 256.595 52.9247 255.475 52.9247C254.355 52.9247 253.529 53.7787 253.529 55.0387C253.529 56.3127 254.369 57.1527 255.475 57.1527ZM266.098 51.1887H268.1V58.8887H266.098V57.8247C265.538 58.6087 264.782 59.0567 263.718 59.0567C262.024 59.0567 260.974 57.8947 260.974 56.0187V51.1887H262.976V55.5847C262.976 56.5927 263.354 57.1527 264.39 57.1527C265.496 57.1527 266.098 56.4947 266.098 55.2347V51.1887ZM269.699 58.8887V48.1087H271.701V58.8887H269.699ZM279.02 56.8167L279.356 58.4407C278.936 58.7207 277.984 59.0567 277.06 59.0567C275.52 59.0567 274.176 58.1327 274.176 55.9207V53.0787H272.804V51.1887H274.176V49.5227L276.178 49.0887V51.1887H279.034V53.0787H276.178V55.8087C276.178 56.7187 276.612 57.1947 277.41 57.1947C277.858 57.1947 278.39 57.0407 279.02 56.8167ZM284.001 59.0567C281.943 59.0567 280.445 58.0487 280.165 56.3547H282.195C282.349 56.9707 282.811 57.3907 284.057 57.3907C284.939 57.3907 285.359 57.1807 285.359 56.7607C285.359 56.2427 284.757 56.2007 283.595 55.9207C281.411 55.4027 280.515 54.9127 280.515 53.5827C280.515 51.9587 281.859 51.0207 283.889 51.0207C286.031 51.0207 287.081 52.0567 287.347 53.4847H285.317C285.163 52.9947 284.743 52.7007 283.819 52.7007C283.021 52.7007 282.531 52.9247 282.531 53.3447C282.531 53.7087 282.881 53.7787 284.001 54.0307C286.199 54.5347 287.431 54.9547 287.431 56.4947C287.431 58.2167 285.905 59.0567 284.001 59.0567Z" fill="#05581C"/>
</g>
<defs>
<clipPath id="clip0_209_141">
<rect width="57.1106" height="64.004" fill="white" transform="translate(0.0343933 0.708984)"/>
</clipPath>
<clipPath id="clip1_209_141">
<rect width="206.55" height="38.5906" fill="white" transform="translate(74.2781 23.2988)"/>
</clipPath>
</defs>
</svg>
