<svg width="73" height="73" viewBox="0 0 73 73" fill="none" xmlns="http://www.w3.org/2000/svg">
<path d="M51.8307 30.1863L55.5322 29.9505C55.5385 29.95 55.5452 29.9495 55.5519 29.949C58.1898 29.7252 60.5575 28.3355 62.0485 26.1353L64.9747 21.8178C67.5216 18.0592 68.5084 13.5194 67.7524 9.03522C67.6038 8.15453 67.1559 7.34296 66.4916 6.75084C65.8269 6.15823 64.9723 5.80827 64.085 5.76574C59.5659 5.54822 55.2039 7.07808 51.799 10.0716L47.8874 13.5107C45.8942 15.2629 44.806 17.7933 44.9011 20.4543C44.9016 20.4605 44.9016 20.4673 44.9021 20.4741L45.1131 24.1974C45.1953 25.649 44.6661 27.0812 43.6639 28.1243L13.105 59.6948C12.2869 60.5528 11.8644 61.7298 11.9158 63.0093C11.9725 64.4178 12.6152 65.8012 13.6351 66.7104C14.5565 67.5317 15.8231 67.9995 17.0891 67.9995C17.2246 67.9995 17.3602 67.9942 17.4952 67.9831C18.7646 67.8811 19.8764 67.3185 20.6291 66.3933L48.1258 32.1063C49.0376 30.9781 50.3883 30.2782 51.8307 30.1863ZM46.6579 30.9114L19.1636 65.1955C18.7435 65.7118 18.0975 66.0298 17.3448 66.0903C16.4493 66.1623 15.5313 65.8626 14.8882 65.2893C14.2451 64.7156 13.8394 63.8349 13.8033 62.9324C13.7726 62.174 14.0086 61.491 14.4633 61.0144L45.0199 29.4463C46.3897 28.0209 47.1107 26.0685 46.9992 24.0896L46.7882 20.3759C46.7166 18.2931 47.5697 16.3128 49.1304 14.9405L53.042 11.5014C56.0778 8.83269 59.9682 7.47008 63.9951 7.66246C64.4536 7.6847 64.8949 7.86548 65.2385 8.17193C65.5822 8.4779 65.8134 8.89746 65.8903 9.35231C66.5642 13.3502 65.6846 17.397 63.414 20.7477L60.4878 25.0656C59.3203 26.7883 57.4673 27.8773 55.4025 28.0557L51.711 28.2906C49.7442 28.4163 47.9033 29.3704 46.6579 30.9114Z" fill="#05581C"/>
<path d="M66.2554 59.4548L45.7657 40.6872C45.3802 40.3338 44.7832 40.3619 44.4314 40.7495C44.0805 41.1372 44.1084 41.738 44.4939 42.0914L64.9783 60.8546C65.4657 61.3075 65.742 61.975 65.7569 62.7339C65.7747 63.6368 65.4224 64.5403 64.8144 65.1517C64.2068 65.7627 63.3099 66.118 62.4102 66.0996C61.6555 66.0846 60.9918 65.8067 60.5462 65.3219L42.2881 45.1636C41.9368 44.7755 41.3393 44.7479 40.9539 45.1008C40.5684 45.4541 40.5405 46.0549 40.8918 46.4426L59.1542 66.6057C59.9569 67.4786 61.0999 67.9736 62.3732 67.9987C62.4063 67.9992 62.439 67.9997 62.4722 67.9997C63.8406 67.9997 65.209 67.4414 66.1496 66.495C67.1138 65.5253 67.6728 64.1057 67.645 62.6967C67.62 61.4163 67.1283 60.2668 66.2554 59.4548Z" fill="#05581C"/>
<path d="M16.3952 30.0065C17.9583 31.4547 19.9891 32.2802 22.1135 32.3315C22.1203 32.332 22.127 32.332 22.1333 32.332L25.842 32.3436C27.2878 32.3479 28.6773 32.9652 29.6526 34.0339L31.2863 35.8373C31.4728 36.0432 31.728 36.1476 31.9847 36.1476C32.2116 36.1476 32.4394 36.066 32.6201 35.9002C33.0061 35.5468 33.034 34.946 32.6826 34.5583L31.0465 32.7525C29.7141 31.2918 27.8194 30.4507 25.8482 30.4439L22.1496 30.4323C20.5062 30.3903 18.935 29.7576 17.7175 28.6492L6.96964 15.8004C6.86005 15.6689 6.86822 15.4785 6.98887 15.3572C7.07154 15.2735 7.16863 15.2615 7.2191 15.2615C7.26957 15.2615 7.36666 15.2735 7.44981 15.3572L17.233 25.1961C18.2001 26.1686 19.7737 26.1686 20.7408 25.1956L21.8905 24.0398V24.0394L23.9319 21.9865C23.9319 21.9865 23.9323 21.9865 23.9323 21.986L23.9328 21.9855L25.0821 20.8298C26.0491 19.8573 26.0491 18.2748 25.0821 17.3022L15.2989 7.46383C15.172 7.33622 15.172 7.12789 15.2989 7.00028C15.4195 6.87896 15.6089 6.87074 15.7396 6.98095L28.5163 17.7899C29.6189 19.0138 30.2481 20.5944 30.2899 22.2466L30.301 25.9665C30.3077 27.9483 31.1445 29.8538 32.599 31.1965L34.3495 32.7999C34.7355 33.1532 35.3324 33.1252 35.6838 32.7375C36.0347 32.3494 36.0068 31.749 35.6213 31.3957L33.8737 29.7948C32.8081 28.8116 32.1947 27.4137 32.1899 25.9603L32.1784 22.2306C32.1784 22.2238 32.1784 22.2171 32.1779 22.2103C32.127 20.0738 31.306 18.0316 29.866 16.4597C29.8391 16.4302 29.8102 16.4022 29.7795 16.3761L16.9552 5.52747C16.0689 4.77729 14.7826 4.83336 13.9636 5.65701C13.0999 6.52562 13.0999 7.93849 13.9636 8.80661L23.7468 18.6455C23.9775 18.8775 23.9775 19.255 23.7468 19.487L23.2647 19.9714L12.3611 9.00673C11.9925 8.6355 11.3945 8.6355 11.0259 9.00673C10.6572 9.37747 10.6572 9.97877 11.0259 10.3495L21.9295 21.3146L21.2229 22.0247L10.3193 11.0601C9.95064 10.6893 9.35271 10.6893 8.98405 11.0601C8.61491 11.4308 8.61491 12.0321 8.98405 12.4028L19.8872 23.368L19.4056 23.8528C19.1748 24.0848 18.7994 24.0848 18.5687 23.8528L8.78506 14.0144C8.36689 13.5939 7.81078 13.3618 7.2191 13.3618C6.62741 13.3618 6.0713 13.5939 5.65313 14.0144C4.8341 14.838 4.77883 16.1315 5.52432 17.0233L16.3126 29.9195C16.338 29.9504 16.3659 29.9794 16.3952 30.0065Z" fill="#05581C"/>
</svg>
