<svg width="24" height="24" viewBox="0 0 24 24" fill="none" xmlns="http://www.w3.org/2000/svg">
<path d="M12.0001 12.8457C13.6569 12.8457 15.0001 11.5814 15.0001 10.0219C15.0001 8.46246 13.6569 7.19824 12.0001 7.19824C10.3432 7.19824 9.00006 8.46246 9.00006 10.0219C9.00006 11.5814 10.3432 12.8457 12.0001 12.8457Z" stroke="#05581C" stroke-width="1.5" stroke-linecap="round" stroke-linejoin="round"/>
<path d="M19.5001 10.0217C19.5001 16.375 12.0001 21.3165 12.0001 21.3165C12.0001 21.3165 4.50006 16.375 4.50006 10.0217C4.50006 8.14943 5.29024 6.35388 6.69676 5.03001C8.10328 3.70614 10.0109 2.9624 12.0001 2.9624C13.9892 2.9624 15.8968 3.70614 17.3034 5.03001C18.7099 6.35388 19.5001 8.14943 19.5001 10.0217V10.0217Z" stroke="#05581C" stroke-width="1.5" stroke-linecap="round" stroke-linejoin="round"/>
</svg>
