<svg width="73" height="73" viewBox="0 0 73 73" fill="none" xmlns="http://www.w3.org/2000/svg">
<path d="M50.1877 41.0625H44.1043C43.701 41.0625 43.3141 40.9023 43.0289 40.6171C42.7437 40.3319 42.5835 39.945 42.5835 39.5417V34.8575C44.4312 33.7907 45.9659 32.2568 47.0337 30.4096C48.1014 28.5624 48.6646 26.4669 48.6668 24.3334V15.2084C48.6668 11.9816 47.385 8.88691 45.1033 6.60522C42.8216 4.32353 39.727 3.04169 36.5002 3.04169C33.2734 3.04169 30.1787 4.32353 27.897 6.60522C25.6153 8.88691 24.3335 11.9816 24.3335 15.2084V24.3334C24.3357 26.4669 24.8989 28.5624 25.9666 30.4096C27.0344 32.2568 28.5691 33.7907 30.4168 34.8575V39.5417C30.4168 39.945 30.2566 40.3319 29.9714 40.6171C29.6862 40.9023 29.2993 41.0625 28.896 41.0625H22.8127C20.7959 41.0625 18.8618 41.8637 17.4357 43.2897C16.0096 44.7158 15.2085 46.6499 15.2085 48.6667V68.4375C15.2085 68.8409 15.3687 69.2277 15.6539 69.5129C15.9391 69.7981 16.326 69.9584 16.7293 69.9584H56.271C56.6743 69.9584 57.0612 69.7981 57.3464 69.5129C57.6316 69.2277 57.7918 68.8409 57.7918 68.4375V48.6667C57.7918 46.6499 56.9907 44.7158 55.5646 43.2897C54.1386 41.8637 52.2044 41.0625 50.1877 41.0625ZM45.6252 14.6456C45.0565 15.2973 44.3554 15.8202 43.5686 16.1795C42.7819 16.5388 41.9276 16.7262 41.0627 16.7292C39.4493 16.7292 37.9019 16.0883 36.7611 14.9474C35.6203 13.8066 34.9793 12.2593 34.9793 10.6459C34.9823 9.78095 35.1697 8.92663 35.529 8.13987C35.8883 7.35312 36.4112 6.65203 37.0629 6.08335C39.2901 6.21694 41.3912 7.16192 42.9689 8.73963C44.5466 10.3173 45.4916 12.4184 45.6252 14.6456ZM32.7437 6.9046C32.2136 8.08069 31.9389 9.35581 31.9377 10.6459C31.9409 11.3422 32.0225 12.0361 32.181 12.7142C30.7972 13.5726 29.1347 13.8615 27.5425 13.5202C27.8148 12.081 28.4296 10.7285 29.3349 9.57702C30.2402 8.42554 31.4094 7.50891 32.7437 6.9046ZM27.3752 24.3334V16.5923C27.8779 16.6763 28.3863 16.722 28.896 16.7292C30.4636 16.7244 32.0035 16.3158 33.3672 15.5429C34.6239 17.5328 36.6008 18.9603 38.885 19.5271C41.1692 20.0939 43.584 19.7562 45.6252 18.5846V24.3334C45.6252 26.7535 44.6638 29.0744 42.9525 30.7857C41.2412 32.497 38.9203 33.4584 36.5002 33.4584C34.0801 33.4584 31.7591 32.497 30.0478 30.7857C28.3365 29.0744 27.3752 26.7535 27.3752 24.3334ZM36.5002 36.5C37.5264 36.4933 38.548 36.3605 39.5418 36.1046V39.5417C39.5442 40.2474 39.7102 40.943 40.0269 41.5737C40.3436 42.2044 40.8022 42.753 41.3668 43.1765L36.5002 48.0431L31.6335 43.1765C32.1981 42.753 32.6568 42.2044 32.9734 41.5737C33.2901 40.943 33.4561 40.2474 33.4585 39.5417V36.1046C34.4524 36.3605 35.4739 36.4933 36.5002 36.5ZM18.2502 48.6667C18.2502 47.4566 18.7309 46.2961 19.5865 45.4405C20.4421 44.5849 21.6026 44.1042 22.8127 44.1042H28.2725L34.9793 50.8111V66.9167H27.3752V59.3125H24.3335V66.9167H18.2502V48.6667ZM54.7502 66.9167H48.6668V59.3125H45.6252V66.9167H38.021V50.8111L44.7279 44.1042H50.1877C51.3977 44.1042 52.5582 44.5849 53.4138 45.4405C54.2695 46.2961 54.7502 47.4566 54.7502 48.6667V66.9167Z" fill="#05581C"/>
</svg>
