<svg width="24" height="24" viewBox="0 0 24 24" fill="none" xmlns="http://www.w3.org/2000/svg">
<path d="M8.66971 11.6772C9.44768 13.1742 10.7369 14.3822 12.331 15.1076C12.4476 15.1597 12.5766 15.1822 12.7053 15.173C12.834 15.1639 12.9579 15.1233 13.0649 15.0554L15.412 13.5822C15.5158 13.5171 15.6352 13.4773 15.7595 13.4666C15.8837 13.4559 16.0089 13.4745 16.1235 13.5207L20.5145 15.292C20.6637 15.3516 20.7882 15.4553 20.8693 15.5873C20.9505 15.7194 20.9838 15.8727 20.9643 16.0241C20.8256 17.0463 20.2957 17.9858 19.4739 18.6667C18.6522 19.3477 17.5949 19.7233 16.5001 19.7234C13.1186 19.7234 9.87554 18.459 7.48445 16.2085C5.09336 13.9579 3.75006 10.9055 3.75006 7.72266C3.75012 6.69216 4.14924 5.69701 4.8727 4.92355C5.59616 4.15009 6.59434 3.65135 7.68034 3.52072C7.84123 3.5024 8.00409 3.53378 8.14438 3.61015C8.28467 3.68651 8.39479 3.80373 8.45816 3.94412L10.3416 8.08066C10.3904 8.18766 10.4102 8.30433 10.3994 8.42029C10.3886 8.53626 10.3476 8.64791 10.2798 8.74531L8.72017 10.9884C8.64918 11.0893 8.60722 11.2058 8.59837 11.3265C8.58953 11.4472 8.61411 11.5681 8.66971 11.6772V11.6772Z" stroke="#05581C" stroke-width="1.5" stroke-linecap="round" stroke-linejoin="round"/>
</svg>
