<svg width="30" height="30" viewBox="0 0 30 30" fill="none" xmlns="http://www.w3.org/2000/svg">
<path d="M28.75 15C28.75 22.5939 22.5939 28.75 15 28.75C7.40609 28.75 1.25 22.5939 1.25 15C1.25 7.40609 7.40609 1.25 15 1.25C22.5939 1.25 28.75 7.40609 28.75 15ZM3.75854 15C3.75854 21.2085 8.79151 26.2415 15 26.2415C21.2085 26.2415 26.2415 21.2085 26.2415 15C26.2415 8.79151 21.2085 3.75854 15 3.75854C8.79151 3.75854 3.75854 8.79151 3.75854 15Z" fill="#05581C"/>
<path d="M15 6.25C14.3096 6.25 13.75 6.80964 13.75 7.5V15.5834C13.75 15.5834 13.75 15.9093 13.9084 16.1544C14.0144 16.3623 14.1796 16.5429 14.3967 16.6683L20.1715 20.0024C20.7694 20.3475 21.5339 20.1426 21.879 19.5448C22.2241 18.9469 22.0194 18.1824 21.4215 17.8372L16.25 14.8515V7.5C16.25 6.80965 15.6904 6.25 15 6.25Z" fill="#05581C"/>
</svg>
